<?xml version="1.0" encoding="UTF-8"?>
<svg xmlns="http://www.w3.org/2000/svg" viewBox="0 0 1375 1375" width="1375" height="1375">
  <path fill="#F5A623" fill-rule="evenodd" d="M1249,266L1220,294L1196,311L1128,341L1083,352L1036,359L950,363L893,376L856,391L822,415L798,443L781,473L769,504L700,752L753,723L789,711L826,706L866,707L898,714L933,727L967,750L994,776L1016,810L1030,842L1037,874L1038,918L1028,962L1014,994L999,1017L972,1047L947,1065L910,1082L870,1091L826,1092L758,1081L702,1063L634,1047L586,1042L551,1044L514,1049L463,1065L418,1085L395,1102L468,1091L544,1098L597,1115L730,1175L789,1191L854,1197L928,1191L979,1177L1045,1144L1085,1114L1113,1086L1143,1045L1164,1004L1178,960L1186,912L1187,871L1178,811L1163,768L1137,722L1116,696L1084,668L1041,642L987,624L956,618L919,616L861,622L860,617L867,592L873,582L882,541L896,517L917,497L943,491L1049,483L1094,473L1142,453L1184,423L1213,388L1231,357L1239,337L1250,292L1250,266Z M544,128L516,131L478,144L459,158L445,173L431,192L413,228L399,245L375,263L342,274L314,273L292,259L277,233L271,200L265,185L244,158L226,142L214,138L219,158L220,179L212,220L186,272L158,311L144,337L189,321L246,307L321,303L401,314L442,327L490,348L522,367L562,397L599,433L624,464L655,511L674,552L697,630L741,482L738,479L701,478L686,472L670,450L666,438L665,419L669,402L680,383L720,342L740,310L746,286L747,265L744,248L742,247L724,273L702,289L679,300L639,309L567,318L531,331L526,304L506,243L503,202L509,179L522,158L539,141L554,131L551,128L545,129Z M287,342L242,347L212,354L164,370L146,381L144,1049L147,1065L294,1065L365,1059L414,1046L449,1033L478,1018L528,985L583,931L614,886L631,854L648,810L660,766L665,728L666,683L654,610L642,574L622,530L598,490L572,458L540,426L504,400L444,368L414,357L376,348L332,342L288,342Z M315,475L358,480L394,493L442,523L471,552L497,589L516,629L525,668L528,706L522,752L510,789L485,833L445,876L411,901L365,921L331,928L291,930L286,927L285,918L285,481L286,476L290,474L314,474Z M736,770L691,799L667,867L637,920L598,970L554,1010L551,1016L605,1016L684,1030L669,998L663,975L662,957L665,938L669,932L689,933L760,925L798,929L835,948L870,988L872,979L868,939L853,902L826,872L784,842L762,822L750,806L741,773L737,771Z" />
</svg>
